<svg id="Layer_1" viewBox="0 0 24 24" xmlns="http://www.w3.org/2000/svg" data-name="Layer 1"><path d="m19.776 3.208c-2.076-2.068-4.838-3.208-7.776-3.208s-5.701 1.14-7.777 3.208c-2.078 2.069-3.223 4.82-3.223 7.747s1.145 5.677 3.236 7.76l4.151 3.819c.972.945 2.254 1.466 3.612 1.466s2.64-.521 3.602-1.456l4.175-3.843c2.078-2.069 3.223-4.82 3.223-7.746s-1.145-5.678-3.223-7.747zm-.691 14.771-4.171 3.839c-1.568 1.525-4.251 1.535-5.839-.01l-4.147-3.815c-1.888-1.88-2.928-4.379-2.928-7.037s1.04-5.158 2.928-7.038c1.889-1.881 4.4-2.917 7.072-2.917s5.183 1.036 7.071 2.917c1.888 1.88 2.928 4.379 2.928 7.038s-1.04 5.157-2.914 7.023zm-5.585-12.979h-3c-1.93 0-3.5 1.57-3.5 3.5v4c0 1.278.967 2.323 2.206 2.47l-.653 1.306c-.123.247-.023.547.224.671.242.122.546.026.671-.224l.862-1.724h3.382l.862 1.724c.125.249.429.346.671.224.247-.124.347-.424.224-.671l-.653-1.306c1.239-.148 2.206-1.192 2.206-2.47v-4c0-1.93-1.57-3.5-3.5-3.5zm-3 1h1v4h-3.5v-1.5c0-1.379 1.121-2.5 2.5-2.5zm4 8h-5c-.827 0-1.5-.673-1.5-1.5v-1.5h1v.5c0 .276.224.5.5.5s.5-.224.5-.5v-.5h4v.5c0 .276.224.5.5.5s.5-.224.5-.5v-.5h1v1.5c0 .827-.673 1.5-1.5 1.5zm1.5-4h-3.5v-4h1c1.379 0 2.5 1.121 2.5 2.5z"/></svg>